<svg width="100" height="100" viewBox="0 0 100 100" fill="none" xmlns="http://www.w3.org/2000/svg">
<rect width="100" height="100" fill="#F1F5F9"/>
<path fill-rule="evenodd" clip-rule="evenodd" d="M85.2992 49.5002C85.2992 68.7197 69.7187 84.3002 50.4992 84.3002C31.2797 84.3002 15.6992 68.7197 15.6992 49.5002C15.6992 30.2807 31.2797 14.7002 50.4992 14.7002C69.7187 14.7002 85.2992 30.2807 85.2992 49.5002ZM59.1992 36.4502C59.1992 41.2551 55.3041 45.1502 50.4992 45.1502C45.6943 45.1502 41.7992 41.2551 41.7992 36.4502C41.7992 31.6453 45.6943 27.7502 50.4992 27.7502C55.3041 27.7502 59.1992 31.6453 59.1992 36.4502ZM50.4989 53.8502C41.7226 53.8502 34.1604 59.0482 30.723 66.5336C35.5092 72.0856 42.5938 75.6002 50.4992 75.6002C58.4044 75.6002 65.4888 72.0857 70.275 66.5339C66.8377 59.0484 59.2754 53.8502 50.4989 53.8502Z" fill="#7D8B9C"/>
</svg>
